<!-- Generator: Adobe Illustrator 25.2.0, SVG Export Plug-In . SVG Version: 6.00 Build 0)  -->
<svg version="1.1" id="Layer_1" xmlns="http://www.w3.org/2000/svg" xmlns:xlink="http://www.w3.org/1999/xlink" x="0px" y="0px"
	 viewBox="0 0 838.9 749.1" style="enable-background:new 0 0 838.9 749.1;" xml:space="preserve">
<style type="text/css">
	.st0{fill:none;stroke:#FFF75F;stroke-width:7.5643;stroke-linecap:round;stroke-linejoin:round;stroke-miterlimit:10;}
	.st1{fill:none;stroke:#FFF75F;stroke-width:5.6732;stroke-linecap:round;stroke-linejoin:round;stroke-miterlimit:10;}
	.st2{fill:#53D0E5;}
	.st3{fill:none;stroke:#2B2B2B;stroke-width:7.5643;stroke-linecap:round;stroke-linejoin:round;stroke-miterlimit:10;}
	.st4{fill:none;stroke:#2B2B2B;stroke-width:5.6732;stroke-linecap:round;stroke-linejoin:round;stroke-miterlimit:10;}
</style>
<g>
	<g>
		<path class="st0" d="M587,160c-151.7-108.7-289.5,0-289.5,0c-100.2,82.3-105.3,191.8-105.3,191.8L177,412.5
			c-11.3,59.2,37.6,195,37.6,195l47.7,51.1l43.3-8.7c6.8,0,6.8-8.7,6.8-8.7C363.9,643.5,365,625,365,625
			c-8.7-183.1-61.5-282-61.5-282c-16.3-17.6-57.7,5.7-57.7,5.7c1.3-10.4-8.7-6.4-8.7-6.4l-8.7,2.5l1.3-4.7c10-80,79-159,79-159
			c11.3-5.7-1.3-11.9-1.3-11.9l6.2-2.5c5.1,23.3,65.2,7.2,65.2,7.2c42.5-13.6,110.2-3.2,110.2-3.2c73.9,19.1,66.4,9.6,66.4,9.6
			c3.8,0.8,18.7-9.6,18.7-9.6c-3.8,7.2-1.3,10.4-1.3,10.4c80.2,84,77.7,151.9,77.7,151.9c7.6,0.8,7.6,10.4,7.6,10.4l-11.3-1.5
			c-7.6-1.5-8.7,4-8.7,4c-52.6-18.3-53.9,0-53.9,0C544.1,431.4,519,623.1,519,623.1c2.5,16.8,51.4,15.9,51.4,15.9
			c-2.5,7.9,6.2,8.7,6.2,8.7l48.8,6.4l47.7-55.2c31.4-43.1,41.2-180.6,41.2-180.6l-17.4-56C683.5,234.3,587,160,587,160z"/>
		<path class="st1" d="M307.5,168.9c0,0,48.6-32.7,137.7-32.7"/>
		<path class="st1" d="c0,0-21.7-15.5-65.4-27.6"/>
		<g>
			<path class="st1" d="M638.4,345.5c0,0-26.9,102.5-40.1,177.8"/>
			<path class="st1" d="c0,0,10.4-37.4,16.5-64.7"/>
			<path class="st1" d="M650.9,332.6c0,0,17,0.2,5.1,61.6"/>
			<path class="st1" d="M696.7,356.1c0,0,0.2,9.5-2.1,26.3"/>
			<path class="st1" d="M666.1,607.4c0,0,6.1-49.4,17-103.8"/>
			<path class="st1" d="M714.8,416.4c0,0-9.6,7.2-20.2,21.7"/>
			<path class="st1" d="M589.1,634.3c0,0,4-15.1,7.4-29.1"/>
			M603.1,356.1c0,0,15.3,0.8,31,5.9"/>
			<path class="st1" d="M614.8,374.1c0,0,11,1.7,15.5,3.4"/>
			<path class="st1" d="M546.3,470.7c0,0,17.2,4,31.4,6.6"/>
			<path class="st1" d="M579.6,492.4c0,0,12.3,3.2,23.3,6.1"/>
			<path class="st1" d="M607.6,431.9c1.5,0.2,8.9,2.5,8.9,2.5"/>
			<path class="st1" d="M554.5,601.2c0,0,13.6,4,25,6.1"
		</g>
		<path class="st1" d="M248.9,348c0,0,31.6,103.8,48,180.4"/>
		<path class="st1" d="M328.1,641.7c0,0-11.9-37.1-18.9-64.1"/>
		<path class="st1" d="M232.8,342.5c0,0-17,0.9-2.8,61.8"/>
		<path class="st1" d="M192.3,350.8c0,0,0.2,9.5,3.2,26.1"/>
		<path class="st1" d="M232.4,615.2c0,0-7.9-49-21-103.1"/>
		<path class="st1" d="M176.5,426.3c0,0,10,6.8,21.2,21"/>
		<path class="st1" d="M310.3,639c0,0-4.5-14.9-8.5-28.7"/>
		<path class="st1" d="M285.8,361.8c0,0-15.3,1.3-30.8,7"/>
		<path class="st1" d="M274.8,380.1c0,0-11,2.1-15.3,4.2"/>
		<path class="st1" d="M346.8,473.9c0,0-17.2,4.5-31.2,7.8"/>
		<path class="st1" d="M314.3,497c0,0-12.1,3.6-23.1,7"/>
		<path class="st1" d="M284.1,437.6c-1.5,0.4-8.9,2.8-8.9,2.8"/>
		<path class="st1" d="M343.6,604.8c0,0-13.4,4.5-24.8,7"/>
	</g>
	<path class="st2" d="M704.4,406.8l-17-54.7C673.6,224.3,577.2,150,577.2,150c-151.7-108.7-289.5,0-289.5,0
		c-95.1,78.1-104.6,180.6-105.3,191v-0.2c0,0,0,0.2,0,0.4c0,0.6,0,0.8,0,0.8l-15.1,60.7c-11.3,59.2,37.6,195,37.6,195l47.7,51.1
		l43.3-8.7c6.8,0,6.8-8.7,6.8-8.7c5.7,0.2,10.8,0.2,15.3,0c0.2,0.4,0.2,0.6,0.2,0.6l-0.2-0.6c36.3-1.5,37.3-16.1,37.3-16.1
		c-2.8-59.2-10.2-109.7-19.1-150.9c0.4-0.2,0.8-0.2,0.8-0.2l-0.8,0.2c-18.5-86-42.5-131.4-42.5-131.4c-16.3-17.6-57.7,5.7-57.7,5.7
		c1.3-10.4-8.7-6.4-8.7-6.4l-4.7,1.3v-0.9c0,0-1.5,0-3.2,1.9l-0.9,0.2l1.3-4.7c10-80,79-159,79-159c11.3-5.7-1.3-11.9-1.3-11.9
		l6.6-1.5c6.2,21.9,64.9,6.4,64.9,6.4c42.5-13.6,110.2-3.2,110.2-3.2c73.9,19.1,66.4,9.6,66.4,9.6c3.8,0.8,18.7-9.6,18.7-9.6
		c-3.8,7.2-1.3,10.4-1.3,10.4c80.2,84,77.7,151.9,77.7,151.9l0.8,9.5l-4.5-0.6c-7.6-1.5-8.7,4-8.7,4c-52.6-18.3-53.9,0-53.9,0
		c-40.1,85.5-65.2,277.2-65.2,277.2c2.5,16.8,51.4,15.9,51.4,15.9c-2.5,7.9,6.2,8.7,6.2,8.7l48.8,6.4l40.1-46.5l0,0l0,0l7.6-8.7
		c31.4-43.1,41.2-180.6,41.2-180.6L704.4,406.8l0.4-0.4C704.8,406.6,704.6,406.6,704.4,406.8z M648.5,331.5
		c-2.1-6.6-5.3-8.3-6.6-8.7C646.8,323.8,648.1,329.1,648.5,331.5z"/>
	<g>
		<path class="st3" d="M570.9,136.9c-151.7-108.7-289.5,0-289.5,0c-100.2,82.3-105.3,191.8-105.3,191.8L161,389.4
			c-11.3,59.2,37.6,195,37.6,195l47.7,51.1l43.3-8.7c6.8,0,6.8-8.7,6.8-8.7C347.8,620.6,349,602,349,602
			c-8.7-183.1-61.5-282-61.5-282c-16.3-17.6-57.7,5.7-57.7,5.7c1.3-10.4-8.7-6.4-8.7-6.4l-8.7,2.5l1.3-4.7c10-80,79-159,79-159
			c11.3-5.7-1.3-11.9-1.3-11.9l6.2-2.5c5.1,23.3,65.2,7.2,65.2,7.2c42.5-13.6,110.2-3.2,110.2-3.2c73.9,19.1,66.4,9.6,66.4,9.6
			c3.8,0.8,18.7-9.6,18.7-9.6c-3.8,7.2-1.3,10.4-1.3,10.4c80.2,84,77.7,151.9,77.7,151.9c7.6,0.8,7.6,10.4,7.6,10.4l-11.3-1.5
			c-7.6-1.5-8.7,4-8.7,4c-52.6-18.3-53.9,0-53.9,0c-40,85.2-65.2,277-65.2,277c2.5,16.8,51.4,15.9,51.4,15.9
			c-2.5,7.9,6.2,8.7,6.2,8.7l48.8,6.4l47.7-55.2c31.4-43.1,41.2-180.6,41.2-180.6l-17.4-56C667.4,211.2,570.9,136.9,570.9,136.9z"/>
		<path class="st4" d="M291.4,145.6c0,0,48.6-32.7,137.7-32.7"/>
		<path class="st4" d="M558.5,147.3c0,0-21.7-15.5-65.4-27.6"/>
		<g>
			<path class="st4" d="M622.4,322.2c0,0-26.9,102.5-40.1,177.8"/>
			<path class="st4" d="M555.4,614.2c0,0,10.4-37.4,16.5-64.7"/>
			<path class="st4" d="M634.9,309.6c0,0,17,0.2,5.1,61.6"/>
			<path class="st4" d="M680.4,333c0,0,0.2,9.5-2.1,26.3"/>
			<path class="st4" d="M650,584.2c0,0,6.1-49.4,17-103.8"/>
			<path class="st4" d="M698.6,393.4c0,0-9.6,7.2-20.2,21.7"/>
			<path class="st4" d="M573,611c0,0,4-15.1,7.4-29.1"/>
			<path class="st4" d="M587,333c0,0,15.3,0.8,31,5.9"/>
			<path class="st4" d="M598.7,351c0,0,11,1.7,15.5,3.4"/>
			<path class="st4" d="M530.1,447.4c0,0,17.2,4,31.4,6.6"/>
			<path class="st4" d="M563.6,469.2c0,0,12.3,3.2,23.3,6.1"/>
			<path class="st4" d="M591.5,408.9c1.5,0.2,8.9,2.5,8.9,2.5"/>
			<path class="st4" d="M538.4,578.1c0,0,13.6,4,25,6.1"/>
		</g>
		<path class="st4" d="M232.6,324.9c0,0,31.6,103.8,48,180.4"/>
		<path class="st4" d="M311.9,618.4c0,0-11.9-37.1-18.9-64.1"/>
		<path class="st4" d="M216.5,319.4c0,0-17,0.9-2.8,61.8"/>
		<path class="st4" d="M176.1,327.5c0,0,0.2,9.5,3.2,26.1"/>
		<path class="st4" d="M216.4,592.1c0,0-7.9-49-21-103.1"/>
		<path class="st4" d="M160.4,403.2c0,0,10,6.8,21.2,21"/>
		<path class="st4" d="M294.3,615.9c0,0-4.5-14.9-8.5-28.7"/>
		<path class="st4" d="M269.7,338.7c0,0-15.3,1.3-30.8,7"/>
		<path class="st4" d="M258.5,357c0,0-11,2.1-15.3,4.2"/>
		<path class="st4" d="M330.8,450.8c0,0-17.2,4.5-31.2,7.8"/>
		<path class="st4" d="M298.2,473.9c0,0-12.1,3.6-23.1,7"/>
		<path class="st4" d="M267.8,414.5c-1.5,0.4-8.9,2.8-8.9,2.8"/>
		<path class="st4" d="M327.6,581.7c0,0-13.4,4.5-24.8,7"/>
	</g>
</g>
</svg>
